<?xml version="1.0" encoding="UTF-8" standalone="no"?>
<svg width="64px" height="64px" viewBox="0 0 64 64" version="1.1" xmlns="http://www.w3.org/2000/svg" xmlns:xlink="http://www.w3.org/1999/xlink" xmlns:sketch="http://www.bohemiancoding.com/sketch/ns">
    <title>Topic</title>
    <description>Created with Sketch (http://www.bohemiancoding.com/sketch)</description>
    <defs></defs>
    <g id="Page-1" stroke="none" stroke-width="1" fill="none" fill-rule="evenodd" sketch:type="MSPage">
        <path d="M32,2 C14.3266796,2 0,13.7621088 0,28.2713134 C0,36.7078924 4.8448932,44.2146683 12.3740583,49.0214662 C14.688,54.8628424 9.4841165,59.8226184 3.99533981,61.1557132 C10.0535922,61.6825344 20.8239223,60.8297629 28.9923107,54.4262271 C47.9120777,55.8751017 64,43.6551436 64,28.2713134 C64,13.7621088 49.6730097,2 32,2 L32,2 Z" id="Topic" fill="#CCCCCC" sketch:type="MSShapeGroup"></path>
        <path d="M23.77475,25.5652401 L23.77475,21.0224621 C23.77475,16.5988608 27.4646554,13 32,13 C36.5354189,13 40.22525,16.5988608 40.22525,21.0224621 L40.22525,25.5652401 L36.5090338,25.5652401 L36.5090338,21.0224621 C36.5090338,18.5974628 34.4862973,16.6245955 32,16.6245955 C29.5137027,16.6245955 27.4909662,18.5974628 27.4909662,21.0224621 L27.4909662,25.5652401 L23.77475,25.5652401 L23.77475,25.5652401 Z M21,25.8733307 L21,41 L43,41 L43,25.8733307 L21,25.8733307 L21,25.8733307 Z" id="lock-icon" fill="#FFFFFF" sketch:type="MSShapeGroup"></path>
    </g>
</svg>