<?xml version="1.0" encoding="UTF-8" standalone="no"?>
<svg width="64px" height="60px" viewBox="0 0 64 60" version="1.1" xmlns="http://www.w3.org/2000/svg" xmlns:xlink="http://www.w3.org/1999/xlink" xmlns:sketch="http://www.bohemiancoding.com/sketch/ns">
    <title>Slice 1</title>
    <description>Created with Sketch (http://www.bohemiancoding.com/sketch)</description>
    <defs></defs>
    <g id="Page-1" stroke="none" stroke-width="1" fill="none" fill-rule="evenodd" sketch:type="MSPage">
        <g id="topic" sketch:type="MSLayerGroup">
            <g id="Page-1" sketch:type="MSShapeGroup">
                <path d="M32,0 C14.3266796,0 0,11.7621088 0,26.2713134 C0,34.7078924 4.8448932,42.2146683 12.3740583,47.0214662 C14.688,52.8628424 9.4841165,57.8226184 3.99533981,59.1557132 C10.0535922,59.6825344 20.8239223,58.8297629 28.9923107,52.4262271 C47.9120777,53.8751017 64,41.6551436 64,26.2713134 C64,11.7621088 49.6730097,0 32,0 L32,0 L32,0 Z" id="Topic" fill="#CCCCCC"></path>
                <g id="Colored-Forlight" transform="translate(17.000000, 11.000000)" fill="#FFFFFF">
                    <path d="M14.9940018,0 L27.9791883,7.44231747 L27.9791883,22.3269524 L14.9940018,29.7692699 L2.00881534,22.3269524 L2.00881534,7.44231747 L14.9940018,0 Z M14.9940018,6.27945537 L22.5010628,10.5820452 L22.5010628,19.1872247 L14.9940018,23.4898145 L7.48694089,19.1872247 L7.48694089,10.5820452 L14.9940018,6.27945537 Z" id="Main-Polygon"></path>
                    <polygon id="Accent" points="27.9791883 22.3269524 14.9940018 29.7692699 14.9940018 14.9013025 "></polygon>
                </g>
            </g>
        </g>
    </g>
</svg>