<?xml version="1.0" encoding="UTF-8" standalone="no"?>
<svg width="360px" height="100px" viewBox="0 0 360 100" version="1.1" xmlns="http://www.w3.org/2000/svg" xmlns:xlink="http://www.w3.org/1999/xlink" xmlns:sketch="http://www.bohemiancoding.com/sketch/ns">
    <title>POWERED BY FOR LIGHT</title>
    <description>Created with Sketch (http://www.bohemiancoding.com/sketch)</description>
    <defs></defs>
    <g id="Logo" stroke="none" stroke-width="1" fill="none" fill-rule="evenodd" sketch:type="MSPage">
        <g id="POWERED-BY-FOR-LIGHT" sketch:type="MSArtboardGroup" transform="translate(-71.000000, -46.000000)" fill="#bfbfbf">
            <g id="Colored-Forlight" sketch:type="MSLayerGroup" transform="translate(65.000000, 50.000000)">
                <path d="M47.9808059,0 L89.5334026,23.8154159 L89.5334026,71.4462478 L47.9808059,95.2616637 L6.42820909,71.4462478 L6.42820909,23.8154159 L47.9808059,0 Z M47.9808059,20.0942572 L72.0034009,33.8625445 L72.0034009,61.3991192 L47.9808059,75.1674065 L23.9582109,61.3991192 L23.9582109,33.8625445 L47.9808059,20.0942572 Z" id="Main-Polygon" sketch:type="MSShapeGroup"></path>
                <polygon id="Accent" sketch:type="MSShapeGroup" points="89.5334026 71.4462478 47.9808059 95.2616637 47.9808057 47.684168 "></polygon>
            </g>
            <g id="Font-Heavy" sketch:type="MSLayerGroup" transform="translate(188.000000, 73.000000)">
                <path d="M22.5599022,0.111025318 C6.97622811,0.111025318 -0.308822811,11.7211014 -0.245474542,23.3311776 C-0.182126273,34.8778107 6.7861833,46.3610007 22.5599022,46.3610007 C27.5644155,46.3610007 31.8087495,45.219026 35.1662077,43.0619627 L40.5508106,48.3911779 L46.4421996,42.4909753 L41.1842933,37.2886461 C44.0349654,33.1648486 45.365279,27.8990764 45.3019308,22.8236333 C45.1118859,11.4038862 38.1435764,0.111025318 22.5599022,0.111025318 Z M22.5599022,7.66074695 C33.0123666,7.66074695 36.7499145,15.4007977 37.0666558,22.5698611 C37.3833971,30.1830258 32.5689287,38.6209499 22.5599022,38.6209499 C12.9309654,38.6209499 8.11649695,30.8174562 7.98980041,23.5215067 C7.86310387,16.0352281 12.1074379,7.66074695 22.5599022,7.66074695 Z" id="Path" sketch:type="MSShapeGroup"></path>
                <path d="M46.6876741,14.322266 L46.6876741,30.7540131 C46.6876741,40.4607981 52.1356253,46.1072285 59.610721,46.1072285 C63.9817515,46.1072285 66.9591202,44.5845956 70.1898819,41.4124437 L70.696668,45.6631273 L77.6016293,45.6631273 L77.6016293,14.322266 L69.9364888,14.322266 L69.9364888,30.3099118 C69.9364888,35.0681398 66.7057271,39.0650512 61.9546069,39.0650512 C57.013442,39.0650512 54.4161629,35.448798 54.4161629,30.6905701 L54.4161629,14.322266 L46.6876741,14.322266 Z" id="Path" sketch:type="MSShapeGroup"></path>
                <path d="M88.7430061,14.19538 L88.7430061,45.5996842 L81.0145173,45.5996842 L81.0145173,14.19538 L88.7430061,14.19538 Z" id="Path" sketch:type="MSShapeGroup"></path>
                <path d="M80.3176864,5.50368363 C80.3176864,-0.523405071 89.4398371,-0.523405071 89.4398371,5.50368363 C89.4398371,11.5307723 80.3176864,11.5307723 80.3176864,5.50368363 L80.3176864,5.50368363 Z" id="Path" sketch:type="MSShapeGroup"></path>
                <path d="M113.757654,36.5273297 C111.857206,38.4306208 109.386623,39.1284943 106.916041,39.1284943 C102.101572,39.1284943 98.0472831,35.9563423 98.0472831,29.9926967 C98.0472831,24.5365953 101.848179,20.730013 107.042737,20.730013 C109.196578,20.730013 111.477116,21.5547725 113.314216,23.2042915 L118.192033,18.0654053 C114.771226,14.7029243 111.35042,13.4340635 106.916041,13.4340635 C97.8572383,13.4340635 90.3187943,18.8901648 90.3187943,29.9926967 C90.3187943,41.0952285 97.8572383,46.5513298 106.916041,46.5513298 C111.540464,46.5513298 115.34136,45.155583 118.952212,41.6027728 L113.757654,36.5273297 Z" id="Path" sketch:type="MSShapeGroup"></path>
                <path d="M119.261035,1.25300002 L119.261035,45.5996842 L126.989523,45.5996842 L126.989523,31.4518866 L139.215739,45.5996842 L148.527935,45.5996842 L148.527935,45.0286969 L134.021181,29.0410511 L146.754183,14.7663673 L146.754183,14.322266 L137.505336,14.322266 L126.989523,26.8839877 L126.989523,1.25300002 L119.261035,1.25300002 Z" id="Path" sketch:type="MSShapeGroup"></path>
                <path d="M153.833352,45.5996842 L162.195324,45.5996842 L162.195324,8.80272165 L176.25864,8.80272165 L176.25864,1.18955698 L139.770037,1.18955698 L139.770037,8.80272165 L153.833352,8.80272165 L153.833352,45.5996842 Z" id="Path" sketch:type="MSShapeGroup"></path>
                <path d="M191.058379,18.6363927 C189.284627,15.5276838 185.293686,13.5609496 181.112701,13.5609496 C171.99055,13.4975065 164.832196,19.143937 164.832196,29.9292536 C164.832196,40.9048994 171.673809,46.6147729 180.922656,46.5513298 C184.406811,46.4878868 189.284627,44.7114817 191.058379,41.0317854 L191.438468,45.5996842 L198.723519,45.5996842 L198.723519,14.322266 L191.311772,14.322266 L191.058379,18.6363927 Z M181.809532,20.4762408 C193.972399,20.4762408 193.972399,39.4457095 181.809532,39.4457095 C176.678322,39.4457095 172.560684,35.8928993 172.560684,29.9292536 C172.560684,23.965608 176.678322,20.4762408 181.809532,20.4762408 Z" id="Path" sketch:type="MSShapeGroup"></path>
                <path d="M202.326452,1.25300002 L202.326452,45.5996842 L209.991593,45.5996842 L209.991593,1.25300002 L202.326452,1.25300002 Z" id="Path" sketch:type="MSShapeGroup"></path>
                <path d="M213.594525,1.25300002 L213.594525,45.5996842 L221.323014,45.5996842 L221.323014,31.4518866 L233.54923,45.5996842 L242.861426,45.5996842 L242.861426,45.0286969 L228.354672,29.0410511 L241.087674,14.7663673 L241.087674,14.322266 L231.838827,14.322266 L221.323014,26.8839877 L221.323014,1.25300002 L213.594525,1.25300002 Z" id="Path" sketch:type="MSShapeGroup"></path>
            </g>
            <path d="M188,69.4231975 L190.015079,69.4231975 L191.450822,61.3479624 C192.1561,63.1285266 194.020048,63.8808777 195.707676,63.8808777 C199.964531,63.8808777 203.289411,60.8965517 203.289411,56.30721 C203.289411,53.1724138 201.249143,51.0909091 198.100583,51.015674 C196.135881,51.015674 194.221556,51.7178683 192.836189,53.523511 L193.188828,51.2413793 L191.224126,51.2413793 L188,69.4231975 Z M195.934373,61.9247649 C193.717786,61.8996865 192.282042,60.3197492 192.282042,58.1630094 C192.282042,55.3291536 194.574195,53.0219436 197.496059,53.0219436 C200.014907,53.0219436 201.198766,54.3761755 201.198766,56.6583072 C201.198766,59.8683386 198.755483,61.9247649 195.934373,61.9247649 Z M205.329678,58.4639498 C205.329678,61.6238245 207.470699,63.8056426 210.745202,63.8056426 C214.976868,63.8056426 218.478067,60.645768 218.478067,56.30721 C218.478067,53.1222571 216.387423,50.9153605 213.037354,50.9153605 C208.856066,50.9153605 205.329678,54.1253918 205.329678,58.4639498 Z M210.94671,61.8746082 C208.704935,61.8746082 207.319568,60.3448276 207.395134,58.1630094 C207.470699,55.0532915 209.964359,52.7962382 212.861035,52.7962382 C215.127999,52.7962382 216.614119,54.3260188 216.412611,56.6583072 C216.135538,59.5423197 213.868574,61.8746082 210.94671,61.8746082 Z M221.273989,51.2413793 L223.490576,63.6050157 L225.807916,63.6050157 L230.56854,54.4012539 L231.979095,63.6050157 L234.271247,63.6050157 L240.820254,51.2413793 L238.55329,51.2413793 L233.490404,61.4231975 L231.90353,51.2413793 L230.215901,51.2413793 L224.976696,61.3981191 L223.465387,51.2413793 L221.273989,51.2413793 Z M251.701679,60.3448276 C250.69414,61.3479624 248.905757,61.9247649 247.495202,61.9247649 C244.951165,61.9247649 243.389479,60.5956113 243.641364,58.1880878 L254.220528,58.1880878 C255.580706,53.2476489 253.087046,50.9404389 249.283585,50.9404389 C245.051919,50.9404389 241.575908,54.1504702 241.575908,58.4639498 C241.575908,61.7241379 243.716929,63.8056426 247.117375,63.8056426 C249.056888,63.8056426 251.374229,63.1285266 252.885538,61.6489028 L251.701679,60.3448276 Z M252.558088,56.4576803 L243.943626,56.4576803 C244.724469,54.0752351 246.840302,52.7711599 249.006511,52.7711599 C251.600925,52.7711599 253.112234,53.9749216 252.558088,56.4827586 L252.558088,56.4576803 Z M260.215387,51.1912226 L258.301062,51.1912226 L256.109664,63.5799373 L258.17512,63.5799373 L259.384167,56.6833856 C259.812371,54.3009404 261.726696,52.9968652 263.716587,52.9717868 C264.572995,52.9717868 265.177519,53.1974922 265.756854,53.6489028 L266.99109,51.8934169 C266.336189,51.3166144 265.353838,50.9404389 264.270733,50.9655172 C262.83499,50.9655172 261.298492,51.3667712 260.039068,52.9467085 L260.240576,51.1661442 L260.215387,51.1912226 Z M277.217615,60.3448276 C276.210075,61.3479624 274.421693,61.9247649 273.011138,61.9247649 C270.467101,61.9247649 268.905415,60.5956113 269.1573,58.1880878 L279.736463,58.1880878 C281.096642,53.2476489 278.602981,50.9404389 274.79952,50.9404389 C270.567855,50.9404389 267.091844,54.1504702 267.091844,58.4639498 C267.091844,61.7241379 269.232865,63.8056426 272.63331,63.8056426 C274.572824,63.8056426 276.890164,63.1285266 278.401474,61.6489028 L277.217615,60.3448276 Z M278.074023,56.4576803 L269.459561,56.4576803 C270.240404,54.0752351 272.356237,52.7711599 274.522447,52.7711599 C277.116861,52.7711599 278.62817,53.9749216 278.074023,56.4827586 L278.074023,56.4576803 Z M296.965387,46.0250784 L294.92512,46.0250784 L293.615319,53.4482759 C292.910041,51.7680251 291.146847,50.9655172 289.383653,50.9655172 C285.353496,50.9655172 281.852296,53.7492163 281.852296,58.5642633 C281.852296,61.8746082 284.094071,63.8056426 287.141878,63.8056426 C288.980637,63.8056426 291.020905,63.0031348 292.330706,61.2978056 L291.952879,63.5799373 L293.892392,63.5799373 L296.990576,46 L296.965387,46.0250784 Z M289.207334,52.8714734 C291.474297,52.8714734 292.93523,54.3761755 292.93523,56.6081505 C292.93523,59.6677116 290.416381,61.8495298 287.645648,61.8495298 C285.177176,61.8495298 283.842186,60.5705329 283.968129,58.1630094 C284.144448,54.8025078 286.411412,52.8714734 289.232522,52.8714734 L289.207334,52.8714734 Z M309.358122,46.0250784 L307.292666,46.0250784 L304.194483,63.5799373 L306.159184,63.5799373 L306.662954,61.4231975 C307.519363,63.1285266 309.005483,63.8056426 310.844243,63.8056426 C314.924777,63.8056426 318.451165,60.9467085 318.451165,56.1818182 C318.451165,52.8213166 316.259767,50.9655172 313.161583,50.9655172 C311.398389,50.9655172 309.23218,51.7680251 308.048321,53.4482759 L309.358122,46.0250784 Z M312.783756,52.8965517 C314.975154,52.8965517 316.436086,54.200627 316.360521,56.5579937 C316.234578,59.8934169 313.665353,61.9498433 310.919808,61.9498433 C308.753598,61.9498433 307.317855,60.2946708 307.39342,58.0376176 C307.494174,54.9780564 310.038211,52.8965517 312.783756,52.8965517 Z M331.725497,64.1065831 L333.992461,51.2413793 L331.927005,51.2413793 L330.768334,57.8369906 C330.365319,60.0689655 328.199109,61.8495298 325.932145,61.8746082 C323.413297,61.8746082 322.708019,60.3949843 323.136223,58.0125392 L324.345271,51.2413793 L322.279815,51.2413793 L321.070768,58.0376176 C320.441056,61.6489028 322.279815,63.7805643 325.453564,63.7805643 C327.19157,63.7554859 328.828821,63.2288401 330.188999,61.6238245 L329.760795,64.0815047 C329.231837,67.1159875 327.418266,68.169279 325.100925,68.169279 C322.959904,68.169279 321.750857,67.3166144 321.977553,65.3605016 L320.012851,65.3605016 C319.710589,68.369906 321.498972,70 324.899417,70 C328.148732,70 330.995031,68.2695925 331.725497,64.1065831 Z" id="powered-by" sketch:type="MSShapeGroup"></path>
        </g>
    </g>
</svg>