<?xml version="1.0" encoding="UTF-8" standalone="no"?>
<svg width="727px" height="193px" viewBox="0 0 727 193" version="1.1" xmlns="http://www.w3.org/2000/svg" xmlns:xlink="http://www.w3.org/1999/xlink" xmlns:sketch="http://www.bohemiancoding.com/sketch/ns">
    <title>Wide For Light</title>
    <description>Created with Sketch (http://www.bohemiancoding.com/sketch)</description>
    <defs></defs>
    <g id="Logo" stroke="none" stroke-width="1" fill="none" fill-rule="evenodd" sketch:type="MSPage">
        <g id="Wide-For-Light" sketch:type="MSArtboardGroup" transform="translate(-107.000000, -84.000000)">
            <g id="Colored-Forlight" sketch:type="MSLayerGroup" transform="translate(95.000000, 84.000000)">
                <path d="M96.4614118,0 L179.999445,48.0489789 L179.999445,144.146937 L96.4614118,192.195916 L12.9233787,144.146937 L12.9233787,48.0489789 L96.4614118,0 Z M96.4614118,40.5413259 L144.756837,68.3196418 L144.756837,123.876274 L96.4614118,151.65459 L48.1659864,123.876274 L48.1659864,68.3196418 L96.4614118,40.5413259 Z" id="Main-Polygon" fill="#202020" sketch:type="MSShapeGroup"></path>
                <polygon id="Accent" fill="#cb0036" sketch:type="MSShapeGroup" points="179.999445 144.146937 96.4614118 192.195916 96.4614116 96.2055666 "></polygon>
            </g>
            <g id="Font-Heavy" sketch:type="MSLayerGroup" transform="translate(343.000000, 132.000000)">
                <path d="M45.584,0.224 C14.096,0.224 -0.624,23.648 -0.496,47.072 C-0.368,70.368 13.712,93.536 45.584,93.536 C55.696,93.536 64.272,91.232 71.056,86.88 L81.936,97.632 L93.84,85.728 L83.216,75.232 C88.976,66.912 91.664,56.288 91.536,46.048 C91.152,23.008 77.072,0.224 45.584,0.224 Z M45.584,15.456 C66.704,15.456 74.256,31.072 74.896,45.536 C75.536,60.896 65.808,77.92 45.584,77.92 C26.128,77.92 16.4,62.176 16.144,47.456 C15.888,32.352 24.464,15.456 45.584,15.456 Z" id="Path" fill="#202020" sketch:type="MSShapeGroup"></path>
                <path d="M94.336,28.896 L94.336,62.048 C94.336,81.632 105.344,93.024 120.448,93.024 C129.28,93.024 135.296,89.952 141.824,83.552 L142.848,92.128 L156.8,92.128 L156.8,28.896 L141.312,28.896 L141.312,61.152 C141.312,70.752 134.784,78.816 125.184,78.816 C115.2,78.816 109.952,71.52 109.952,61.92 L109.952,28.896 L94.336,28.896 Z" id="Path" fill="#202020" sketch:type="MSShapeGroup"></path>
                <path d="M179.312,28.64 L179.312,92 L163.696,92 L163.696,28.64 L179.312,28.64 Z" id="Path" fill="#202020" sketch:type="MSShapeGroup"></path>
                <path d="M162.288,11.104 C162.288,-1.056 180.72,-1.056 180.72,11.104 C180.72,23.264 162.288,23.264 162.288,11.104 L162.288,11.104 Z" id="Path" fill="#202020" sketch:type="MSShapeGroup"></path>
                <path d="M229.856,73.696 C226.016,77.536 221.024,78.944 216.032,78.944 C206.304,78.944 198.112,72.544 198.112,60.512 C198.112,49.504 205.792,41.824 216.288,41.824 C220.64,41.824 225.248,43.488 228.96,46.816 L238.816,36.448 C231.904,29.664 224.992,27.104 216.032,27.104 C197.728,27.104 182.496,38.112 182.496,60.512 C182.496,82.912 197.728,93.92 216.032,93.92 C225.376,93.92 233.056,91.104 240.352,83.936 L229.856,73.696 Z" id="Path" fill="#202020" sketch:type="MSShapeGroup"></path>
                <path d="M240.976,2.528 L240.976,92 L256.592,92 L256.592,63.456 L281.296,92 L300.112,92 L300.112,90.848 L270.8,58.592 L296.528,29.792 L296.528,28.896 L277.84,28.896 L256.592,54.24 L256.592,2.528 L240.976,2.528 Z" id="Path" fill="#202020" sketch:type="MSShapeGroup"></path>
                <path d="M310.832,92 L327.728,92 L327.728,17.76 L356.144,17.76 L356.144,2.4 L282.416,2.4 L282.416,17.76 L310.832,17.76 L310.832,92 Z" id="Path" fill="#cb0036" sketch:type="MSShapeGroup"></path>
                <path d="M386.048,37.6 C382.464,31.328 374.4,27.36 365.952,27.36 C347.52,27.232 333.056,38.624 333.056,60.384 C333.056,82.528 346.88,94.048 365.568,93.92 C372.608,93.792 382.464,90.208 386.048,82.784 L386.816,92 L401.536,92 L401.536,28.896 L386.56,28.896 L386.048,37.6 Z M367.36,41.312 C391.936,41.312 391.936,79.584 367.36,79.584 C356.992,79.584 348.672,72.416 348.672,60.384 C348.672,48.352 356.992,41.312 367.36,41.312 Z" id="Path" fill="#cb0036" sketch:type="MSShapeGroup"></path>
                <path d="M408.816,2.528 L408.816,92 L424.304,92 L424.304,2.528 L408.816,2.528 Z" id="Path" fill="#cb0036" sketch:type="MSShapeGroup"></path>
                <path d="M431.584,2.528 L431.584,92 L447.2,92 L447.2,63.456 L471.904,92 L490.72,92 L490.72,90.848 L461.408,58.592 L487.136,29.792 L487.136,28.896 L468.448,28.896 L447.2,54.24 L447.2,2.528 L431.584,2.528 Z" id="Path" fill="#cb0036" sketch:type="MSShapeGroup"></path>
            </g>
        </g>
    </g>
</svg>