<?xml version="1.0" encoding="UTF-8" standalone="no"?>
<svg width="15px" height="24px" viewBox="0 0 15 24" version="1.1" xmlns="http://www.w3.org/2000/svg" xmlns:xlink="http://www.w3.org/1999/xlink" xmlns:sketch="http://www.bohemiancoding.com/sketch/ns">
    <title>Slice 1</title>
    <description>Created with Sketch (http://www.bohemiancoding.com/sketch)</description>
    <defs></defs>
    <g id="Page-1" stroke="none" stroke-width="1" fill="none" fill-rule="evenodd" sketch:type="MSPage">
        <path d="M7.68602317,24 C6.24602317,24 5.07810811,22.8252816 5.07810811,21.3763689 C5.07810811,19.9282136 6.24602317,18.7538447 7.68602317,18.7538447 C9.12637066,18.7538447 10.2938803,19.9281553 10.2938803,21.3763689 C10.2938803,22.8252816 9.12637066,24 7.68602317,24 L7.68602317,24 Z M9.73638996,16.2466019 L9.73638996,16.7184466 L5.43741313,16.7184466 L5.43741313,16.2466019 C5.43741313,14.9113398 5.63108108,13.1984854 7.1723166,11.7093204 C8.71361004,10.2199806 10.6396911,8.98968932 10.6396911,7.1292233 C10.6396911,5.07238835 9.22059846,3.98446602 7.43125483,3.98446602 C4.4496139,3.98446602 4.25484556,7.09473786 4.18135135,7.7795534 L0,7.7795534 C0.111370656,4.53634951 1.47428571,0 7.45621622,0 C12.6403668,0 14.9710425,3.49217476 14.9710425,6.76695146 C14.9710425,11.9793786 9.73638996,12.8847961 9.73638996,16.2466019 L9.73638996,16.2466019 Z" id="help-icon" fill="#FFFFFF" sketch:type="MSShapeGroup"></path>
    </g>
</svg>