<?xml version="1.0" encoding="UTF-8" standalone="no"?>
<svg width="15px" height="24px" viewBox="0 0 15 24" version="1.1" xmlns="http://www.w3.org/2000/svg" xmlns:xlink="http://www.w3.org/1999/xlink" xmlns:sketch="http://www.bohemiancoding.com/sketch/ns">
    <title>Slice 1</title>
    <description>Created with Sketch (http://www.bohemiancoding.com/sketch)</description>
    <defs></defs>
    <g id="Page-1" stroke="none" stroke-width="1" fill="none" fill-rule="evenodd" sketch:type="MSPage">
        <path d="M10.7553557,18.9675146 C10.7553557,19.3250097 10.460336,19.6148155 10.0965415,19.6148155 L4.90458498,19.6148155 C4.54067194,19.6148155 4.24565217,19.3249515 4.24565217,18.9675146 C4.24565217,18.6099612 4.54067194,18.3201553 4.90458498,18.3201553 L10.0964822,18.3201553 C10.4603953,18.3201553 10.7553557,18.6100194 10.7553557,18.9675146 L10.7553557,18.9675146 Z M9.97790514,20.4755534 L5.02316206,20.4755534 C4.65924901,20.4755534 4.36422925,20.7654175 4.36422925,21.1229126 C4.36422925,21.4804078 4.65924901,21.7702136 5.02316206,21.7702136 L9.97796443,21.7702136 C10.3418182,21.7702136 10.6367787,21.4803495 10.6367787,21.1229126 C10.6367787,20.7654175 10.3418182,20.4755534 9.97790514,20.4755534 L9.97790514,20.4755534 Z M6.98401186,24 L7.97033597,24 C8.4708498,24 8.59416996,23.7831262 9.94405138,22.600835 L5.05701581,22.600835 C6.3398419,23.766 6.47193676,24 6.98401186,24 L6.98401186,24 Z M15.0011265,7.08984466 C15.0011265,11.4729903 11.0459881,13.9293204 11.0459881,17.3881748 L3.95507905,17.3881748 C3.95507905,13.9293204 0,11.4729903 0,7.08984466 C-5.92885375e-05,2.51691262 3.74745059,0 7.49632411,0 C11.2480435,0 15.0011265,2.52034951 15.0011265,7.08984466 L15.0011265,7.08984466 Z" id="light-bulb-icon" fill="#FFFFFF" sketch:type="MSShapeGroup"></path>
    </g>
</svg>